<svg width="62" height="60" viewBox="0 0 62 60" fill="none" xmlns="http://www.w3.org/2000/svg">
<path d="M0.546875 48.2939V10.4399C0.551458 9.92447 0.658395 9.41505 0.861476 8.94125C1.06456 8.46745 1.35974 8.03871 1.72987 7.67993C2.4287 7.03885 3.34457 6.68651 4.29288 6.69393H26.1769C26.7594 6.6782 27.3252 6.89021 27.7539 7.28493C28.2986 7.59108 28.7176 8.07985 28.9369 8.66493L30.9089 14.1849H57.5239C58.0393 14.1895 58.5488 14.2965 59.0226 14.4995C59.4964 14.7026 59.9251 14.9978 60.2839 15.3679C60.6692 15.7149 60.9745 16.1414 61.1787 16.6179C61.383 17.0944 61.4813 17.6097 61.4669 18.1279V48.4939C61.4622 49.0094 61.3553 49.5188 61.1522 49.9926C60.9491 50.4664 60.654 50.8951 60.2839 51.2539C59.9369 51.6392 59.5104 51.9445 59.0339 52.1488C58.5574 52.3531 58.0421 52.4514 57.5239 52.4369H4.29288C3.77741 52.4324 3.26799 52.3254 2.79419 52.1223C2.32039 51.9193 1.89166 51.6241 1.53288 51.2539C0.915336 50.3882 0.571851 49.357 0.546875 48.2939H0.546875Z" fill="#05A95C"/>
</svg>
