<svg width="54" height="54" viewBox="0 0 54 54" fill="none" xmlns="http://www.w3.org/2000/svg">
<path d="M0 54V47.251C0 39.824 12.15 33.751 27 33.751C41.85 33.751 54 39.826 54 47.251V54H0ZM13.5 13.5C13.5 10.83 14.2918 8.21987 15.7752 5.99981C17.2586 3.77974 19.367 2.04942 21.8338 1.02763C24.3006 0.00584936 27.015 -0.261496 29.6337 0.259405C32.2525 0.780305 34.6579 2.06606 36.5459 3.95406C38.4339 5.84207 39.7197 8.24754 40.2406 10.8663C40.7615 13.485 40.4942 16.1994 39.4724 18.6662C38.4506 21.133 36.7203 23.2414 34.5002 24.7248C32.2801 26.2082 29.67 27 27 27C23.4196 27 19.9858 25.5777 17.4541 23.0459C14.9223 20.5142 13.5 17.0804 13.5 13.5Z" fill="#05A95C"/>
</svg>
