<svg width="202" height="199" viewBox="0 0 202 199" fill="none" xmlns="http://www.w3.org/2000/svg">
<path d="M101 198.5C156.505 198.5 201.5 154.176 201.5 99.5C201.5 44.8238 156.505 0.5 101 0.5C45.4954 0.5 0.5 44.8238 0.5 99.5C0.5 154.176 45.4954 198.5 101 198.5Z" fill="white"/>
<path d="M101 196C155.124 196 199 152.795 199 99.5C199 46.2045 155.124 3 101 3C46.8761 3 3 46.2045 3 99.5C3 152.795 46.8761 196 101 196Z" stroke="#05A95C" stroke-width="5"/>
<path d="M53.7014 93.1156L50.5711 96.2459C46.6658 100.151 46.6658 106.483 50.5711 110.388L79.6105 139.428C83.5158 143.333 89.8474 143.333 93.7527 139.428L96.883 136.297C100.788 132.392 100.788 126.06 96.883 122.155L67.8436 93.1156C63.9383 89.2103 57.6067 89.2103 53.7014 93.1156Z" fill="#05A95C"/>
<path d="M157.339 61.7014L154.208 58.5711C150.303 54.6658 143.971 54.6658 140.066 58.5711L76.481 122.156C72.5757 126.061 72.5757 132.393 76.481 136.298L79.6113 139.429C83.5166 143.334 89.8482 143.334 93.7535 139.429L157.339 75.8436C161.244 71.9383 161.244 65.6067 157.339 61.7014Z" fill="#05A95C"/>
</svg>
