<svg width="1119" height="272" viewBox="0 0 1119 272" fill="none" xmlns="http://www.w3.org/2000/svg">
<path d="M1088.2 0H30C13.4315 0 0 13.4315 0 30V241.5C0 258.069 13.4315 271.5 30 271.5H1088.2C1104.77 271.5 1118.2 258.069 1118.2 241.5V30C1118.2 13.4315 1104.77 0 1088.2 0Z" fill="#F1F1F1"/>
<path d="M595.304 192.09C560.556 191.936 525.849 189.669 491.376 185.303C479.249 183.772 470.669 182.378 465.149 181.03C460.149 179.813 457.664 178.636 457.557 177.43C457.375 175.39 463.917 173.524 471.491 171.364C479.715 169.019 489.035 166.364 491.377 162.889C491.688 162.428 492.012 161.946 492.35 161.441C499.373 150.971 512.449 131.478 531.689 125.541C533.299 125.01 534.979 124.72 536.674 124.681C542.765 124.681 544.574 129.506 545.617 134.721C545.794 135.604 545.947 136.488 546.095 137.343C546.783 141.324 547.377 144.762 549.866 144.762C550.559 144.731 551.236 144.545 551.847 144.217C555.071 142.653 559.524 136.303 565.163 128.264C571.089 119.814 578.463 109.298 587.023 100.743C597.057 90.7118 606.649 85.3828 616.349 84.4538C618.124 84.2838 619.863 84.1978 621.515 84.1978C632.302 84.1978 640.555 87.7318 647.486 95.3208C653.726 102.153 658.304 111.639 663.15 121.682C664.931 125.372 666.772 129.187 668.76 133.012C670.986 137.295 673.26 141.278 675.46 145.129C682.539 157.536 688.13 167.336 684.825 174.778C682.832 179.264 677.579 182.707 668.765 185.305C653.918 189.678 627.829 192.09 595.304 192.09ZM515.562 110.6C502.224 110.6 491.373 100.546 491.373 88.1888C491.373 75.8318 502.224 65.7778 515.562 65.7778C528.9 65.7778 539.749 75.8318 539.749 88.1888C539.749 100.546 528.899 110.6 515.562 110.6Z" fill="#05A95C"/>
</svg>
